<svg width="181" height="58" viewBox="0 0 181 58" fill="none" xmlns="http://www.w3.org/2000/svg">
<path d="M80.2526 55.3033C79.7741 55.5208 79.1215 55.8036 78.2949 56.1517C77.4683 56.4997 76.5112 56.8042 75.4236 57.0653C74.336 57.3263 73.1831 57.4568 71.965 57.4568C70.5728 57.4568 69.2894 57.2175 68.1148 56.739C66.9402 56.2169 66.0048 55.4338 65.3088 54.3897C64.6127 53.3021 64.2647 51.9535 64.2647 50.3438V27.4386H59.6314V22.9359H64.2647V11.5812H70.0073V22.9359H77.6423V27.4386H70.0073V48.5819C70.0943 49.8 70.5076 50.7136 71.2472 51.3226C71.9867 51.8882 72.8568 52.171 73.8574 52.171C74.9885 52.171 76.0327 51.9752 76.9898 51.5837C77.9469 51.1921 78.5777 50.9094 78.8822 50.7353L80.2526 55.3033ZM100.203 57.6526C97.6366 57.6526 95.2874 57.1958 93.1556 56.2822C91.0674 55.3251 89.2402 54.0417 87.674 52.432C86.1514 50.7788 84.955 48.8864 84.0849 46.7547C83.2583 44.6229 82.845 42.3607 82.845 39.9679C82.845 36.7486 83.5846 33.812 85.0638 31.1583C86.5429 28.5045 88.5876 26.3728 91.1979 24.7631C93.8517 23.1534 96.8753 22.3486 100.269 22.3486C103.705 22.3486 106.686 23.1752 109.209 24.8283C111.776 26.438 113.755 28.5697 115.147 31.2235C116.583 33.8338 117.301 36.6616 117.301 39.7069C117.301 40.142 117.279 40.577 117.235 41.0121C117.235 41.4036 117.214 41.7081 117.17 41.9257H88.9139C89.0879 44.1444 89.697 46.1238 90.7411 47.864C91.8287 49.5607 93.2209 50.9094 94.9176 51.91C96.6142 52.8671 98.4414 53.3456 100.399 53.3456C102.487 53.3456 104.445 52.8236 106.272 51.7794C108.143 50.7353 109.426 49.3649 110.122 47.6683L115.082 49.0387C114.342 50.6918 113.233 52.171 111.754 53.4761C110.318 54.7813 108.6 55.8036 106.599 56.5432C104.641 57.2828 102.509 57.6526 100.203 57.6526ZM88.7182 37.945H111.95C111.776 35.7262 111.145 33.7685 110.057 32.0719C108.97 30.3752 107.577 29.0483 105.881 28.0912C104.184 27.1341 102.313 26.6555 100.269 26.6555C98.2674 26.6555 96.4185 27.1341 94.7218 28.0912C93.0251 29.0483 91.633 30.3752 90.5454 32.0719C89.5012 33.7685 88.8922 35.7262 88.7182 37.945ZM141.695 27.9607C138.824 28.0042 136.279 28.7438 134.06 30.1794C131.885 31.5716 130.34 33.5075 129.427 35.9873V57H123.684V22.9359H129.035V30.832C130.21 28.4827 131.754 26.5903 133.668 25.1546C135.626 23.6755 137.671 22.8489 139.803 22.6749C140.238 22.6749 140.607 22.6749 140.912 22.6749C141.216 22.6749 141.478 22.6966 141.695 22.7401V27.9607ZM161.637 57.6526C159.07 57.6526 156.721 57.1958 154.589 56.2822C152.501 55.3251 150.673 54.0417 149.107 52.432C147.585 50.7788 146.388 48.8864 145.518 46.7547C144.692 44.6229 144.278 42.3607 144.278 39.9679C144.278 36.7486 145.018 33.812 146.497 31.1583C147.976 28.5045 150.021 26.3728 152.631 24.7631C155.285 23.1534 158.309 22.3486 161.702 22.3486C165.139 22.3486 168.119 23.1752 170.642 24.8283C173.209 26.438 175.188 28.5697 176.58 31.2235C178.016 33.8338 178.734 36.6616 178.734 39.7069C178.734 40.142 178.712 40.577 178.669 41.0121C178.669 41.4036 178.647 41.7081 178.603 41.9257H150.347C150.521 44.1444 151.13 46.1238 152.174 47.864C153.262 49.5607 154.654 50.9094 156.351 51.91C158.048 52.8671 159.875 53.3456 161.832 53.3456C163.921 53.3456 165.878 52.8236 167.706 51.7794C169.576 50.7353 170.86 49.3649 171.556 47.6683L176.515 49.0387C175.776 50.6918 174.666 52.171 173.187 53.4761C171.751 54.7813 170.033 55.8036 168.032 56.5432C166.074 57.2828 163.942 57.6526 161.637 57.6526ZM150.151 37.945H173.383C173.209 35.7262 172.578 33.7685 171.49 32.0719C170.403 30.3752 169.011 29.0483 167.314 28.0912C165.617 27.1341 163.747 26.6555 161.702 26.6555C159.701 26.6555 157.852 27.1341 156.155 28.0912C154.458 29.0483 153.066 30.3752 151.979 32.0719C150.935 33.7685 150.325 35.7262 150.151 37.945Z" fill="#75BF7A"/>
<path d="M49.1393 16.4156L49.0128 16.1073L48.7779 16.3435L44.0983 21.0479L44.009 21.1376L44.0411 21.26C44.4323 22.7514 44.6281 24.2924 44.6281 25.8834C44.6281 36.2098 36.2346 44.6034 25.9082 44.6034C15.5568 44.6034 7.1635 36.2097 7.1635 25.8834C7.1635 24.2672 7.3594 22.7015 7.75049 21.2105L7.7826 21.0881L7.69336 20.9984L3.01379 16.294L2.77804 16.057L2.65209 16.3667C1.45339 19.3135 0.778814 22.5109 0.778814 25.8834C0.778814 39.7224 12.0444 50.9881 25.8834 50.9881C39.7224 50.9881 50.9881 39.7224 50.9881 25.8834C50.9881 22.5368 50.3387 19.3391 49.1393 16.4156ZM41.4469 15.4838L41.5967 15.7073L41.787 15.517L46.0456 11.2583L46.1805 11.1235L46.067 10.9703C41.4962 4.80102 34.1522 0.778814 25.8834 0.778814C17.6397 0.778814 10.2956 4.77597 5.72469 10.9455L5.61116 11.0987L5.74601 11.2336L10.0047 15.4922L10.1949 15.6825L10.3448 15.459C13.1835 11.2253 17.7106 8.2157 22.9465 7.38368C23.9004 7.23696 24.8793 7.1635 25.8834 7.1635C26.8876 7.1635 27.8666 7.23696 28.8205 7.38369C34.0805 8.21564 38.6078 11.2497 41.4469 15.4838Z" fill="#75BF7A" stroke="#75BF7A" stroke-width="0.442372"/>
<path d="M28.8623 26.6944H29.0835V26.4732L29.0835 3.422V3.20081H28.8623L22.92 3.20081L22.6988 3.20081V3.422L22.6988 26.4732V26.6944H22.92H28.8623Z" fill="#75BF7A" stroke="#75BF7A" stroke-width="0.442372"/>
</svg>
