<svg width="63" height="63" viewBox="0 0 63 63" fill="none" xmlns="http://www.w3.org/2000/svg">
<path d="M59.8302 19.8391L59.6756 19.4624L59.3885 19.7511L53.6696 25.5002L53.5606 25.6098L53.5998 25.7594C54.0779 27.5821 54.3172 29.4652 54.3172 31.4096C54.3172 44.0293 44.0596 54.2869 31.4399 54.2869C18.7897 54.2869 8.5323 44.0291 8.5323 31.4096C8.5323 29.4344 8.77171 27.521 9.24966 25.6988L9.28889 25.5493L9.17983 25.4396L3.46101 19.6906L3.17292 19.4009L3.01899 19.7793C1.55408 23.3806 0.729692 27.2881 0.729692 31.4096C0.729692 48.322 14.4972 62.0895 31.4096 62.0895C48.322 62.0895 62.0895 48.322 62.0895 31.4096C62.0895 27.3198 61.2959 23.4119 59.8302 19.8391ZM50.4294 18.7004L50.6125 18.9735L50.845 18.741L56.0495 13.5365L56.2143 13.3717L56.0755 13.1845C50.4897 5.64515 41.5148 0.729692 31.4096 0.729692C21.3351 0.729692 12.36 5.61454 6.77395 13.1542L6.63522 13.3415L6.80001 13.5063L12.0044 18.7107L12.237 18.9432L12.4201 18.6701C15.8893 13.4962 21.4217 9.81819 27.8203 8.80139C28.9861 8.62207 30.1825 8.5323 31.4096 8.5323C32.6367 8.5323 33.8331 8.62207 34.9988 8.80138C41.4271 9.81808 46.9598 13.5259 50.4294 18.7004Z" fill="#75BF7A" stroke="#75BF7A" stroke-width="0.540615"/>
<path d="M22.3013 44C22.3013 42.9313 22.3808 41.9763 22.54 41.135C22.7219 40.2937 23.0061 39.5319 23.3927 38.8498C23.802 38.1449 24.3363 37.4968 24.9957 36.9056C25.6779 36.2917 26.5306 35.7119 27.5538 35.1662C28.6225 34.5977 29.5093 34.1202 30.2142 33.7336C30.9418 33.3244 31.5217 32.9833 31.9537 32.7104C32.3857 32.4376 32.6813 32.1761 32.8405 31.9259C33.0224 31.6531 33.1133 31.3575 33.1133 31.0391C33.1133 30.6071 33.011 30.2319 32.8064 29.9136C32.6017 29.5953 32.3061 29.3565 31.9196 29.1973C31.533 29.0154 31.0555 28.9245 30.4871 28.9245C30.0323 28.9245 29.6003 28.9813 29.191 29.095C28.7817 29.2087 28.3838 29.3793 27.9972 29.6066C27.6334 29.834 27.281 30.1069 26.9399 30.4252C26.5988 30.7208 26.2577 31.0619 25.9167 31.4484L22.4718 27.4238C22.8583 27.0372 23.3472 26.6506 23.9384 26.2641C24.5524 25.8775 25.2459 25.5365 26.019 25.2409C26.7921 24.9225 27.6334 24.6724 28.5429 24.4905C29.4752 24.2859 30.4416 24.1835 31.4421 24.1835C33.0792 24.1835 34.4549 24.4337 35.5691 24.9339C36.706 25.4114 37.57 26.0936 38.1612 26.9804C38.7524 27.8672 39.048 28.9131 39.048 30.1182C39.048 30.8913 38.923 31.5735 38.6729 32.1647C38.4455 32.7332 38.1385 33.2448 37.752 33.6995C37.3654 34.1543 36.922 34.5636 36.4218 34.9274C35.9443 35.2912 35.4668 35.6209 34.9892 35.9165C34.4435 36.1894 33.9319 36.4622 33.4544 36.7351C32.9769 36.9852 32.5335 37.2353 32.1242 37.4855C31.7149 37.7129 31.3284 37.963 30.9646 38.2358C30.6235 38.486 30.2938 38.7702 29.9754 39.0885H39.4232V44H22.3013Z" fill="#75BF7A"/>
</svg>
