<svg width="63" height="63" viewBox="0 0 63 63" fill="none" xmlns="http://www.w3.org/2000/svg">
<path d="M59.8302 19.8391L59.6756 19.4624L59.3885 19.7511L53.6696 25.5002L53.5606 25.6098L53.5998 25.7594C54.0779 27.5821 54.3172 29.4652 54.3172 31.4096C54.3172 44.0293 44.0596 54.2869 31.4399 54.2869C18.7897 54.2869 8.5323 44.0291 8.5323 31.4096C8.5323 29.4344 8.77171 27.521 9.24966 25.6988L9.28889 25.5493L9.17983 25.4396L3.46101 19.6906L3.17292 19.4009L3.01899 19.7793C1.55408 23.3806 0.729692 27.2881 0.729692 31.4096C0.729692 48.322 14.4972 62.0895 31.4096 62.0895C48.322 62.0895 62.0895 48.322 62.0895 31.4096C62.0895 27.3198 61.2959 23.4119 59.8302 19.8391ZM50.4294 18.7004L50.6125 18.9735L50.845 18.741L56.0495 13.5365L56.2143 13.3717L56.0755 13.1845C50.4897 5.64515 41.5148 0.729692 31.4096 0.729692C21.3351 0.729692 12.36 5.61454 6.77395 13.1542L6.63522 13.3415L6.80001 13.5063L12.0044 18.7107L12.237 18.9432L12.4201 18.6701C15.8893 13.4962 21.4217 9.81819 27.8203 8.80139C28.9861 8.62207 30.1825 8.5323 31.4096 8.5323C32.6367 8.5323 33.8331 8.62207 34.9988 8.80138C41.4271 9.81808 46.9598 13.5259 50.4294 18.7004Z" fill="#75BF7A" stroke="#75BF7A" stroke-width="0.540615"/>
<path d="M40.8491 39.0885V44H26.1147V39.0885H30.9579V30.3911C30.7533 30.664 30.4349 30.9368 30.0029 31.2097C29.5709 31.4825 29.082 31.744 28.5363 31.9942C28.0133 32.2443 27.479 32.4489 26.9332 32.6081C26.3875 32.7445 25.8873 32.8127 25.4325 32.8127V27.7648C25.8191 27.7648 26.2966 27.6511 26.865 27.4238C27.4335 27.1736 28.0019 26.8667 28.5704 26.5029C29.1616 26.139 29.6732 25.7752 30.1052 25.4114C30.56 25.0476 30.8442 24.752 30.9579 24.5246H36.5175V39.0885H40.8491Z" fill="#75BF7A"/>
</svg>
