<svg width="63" height="63" viewBox="0 0 63 63" fill="none" xmlns="http://www.w3.org/2000/svg">
<path d="M59.8302 19.8391L59.6756 19.4624L59.3885 19.7511L53.6696 25.5002L53.5606 25.6098L53.5998 25.7594C54.0779 27.5821 54.3172 29.4652 54.3172 31.4096C54.3172 44.0293 44.0596 54.2869 31.4399 54.2869C18.7897 54.2869 8.5323 44.0291 8.5323 31.4096C8.5323 29.4344 8.77171 27.521 9.24966 25.6988L9.28889 25.5493L9.17983 25.4396L3.46101 19.6906L3.17292 19.4009L3.01899 19.7793C1.55408 23.3806 0.729692 27.2881 0.729692 31.4096C0.729692 48.322 14.4972 62.0895 31.4096 62.0895C48.322 62.0895 62.0895 48.322 62.0895 31.4096C62.0895 27.3198 61.2959 23.4119 59.8302 19.8391ZM50.4294 18.7004L50.6125 18.9735L50.845 18.741L56.0495 13.5365L56.2143 13.3717L56.0755 13.1845C50.4897 5.64515 41.5148 0.729692 31.4096 0.729692C21.3351 0.729692 12.36 5.61454 6.77395 13.1542L6.63522 13.3415L6.80001 13.5063L12.0044 18.7107L12.237 18.9432L12.4201 18.6701C15.8893 13.4962 21.4218 9.81817 27.8204 8.80138C28.9861 8.62207 30.1825 8.5323 31.4096 8.5323C32.6368 8.5323 33.8332 8.62208 34.999 8.8014C41.4272 9.81813 46.9598 13.5259 50.4294 18.7004Z" fill="#75BF7A" stroke="#75BF7A" stroke-width="0.540615"/>
<path d="M34.6949 36.9163C35.6499 37.0754 36.4799 37.4506 37.1848 38.0418C37.9124 38.6103 38.4695 39.3265 38.8561 40.1906C39.2653 41.0319 39.47 41.9869 39.47 43.0556C39.47 44.4654 39.0948 45.6933 38.3444 46.7392C37.5941 47.7852 36.5254 48.5924 35.1383 49.1609C33.7513 49.7293 32.1141 50.0136 30.2269 50.0136C28.4987 50.0136 26.9525 49.7521 25.5882 49.2291C24.2467 48.7288 23.087 47.9785 22.1093 46.978L25.0425 43.0897C25.6564 43.7037 26.3613 44.1812 27.1572 44.5223C27.953 44.8633 28.8853 45.0339 29.954 45.0339C31.2501 45.0339 32.2165 44.8065 32.8531 44.3517C33.4898 43.8742 33.8081 43.158 33.8081 42.2029C33.8081 41.1797 33.4216 40.4066 32.6485 39.8836C31.8981 39.3606 30.7044 39.0992 29.0672 39.0992H28.044V35.1768H29.1695C30.4201 35.1768 31.4092 34.9153 32.1369 34.3923C32.8645 33.8466 33.2283 33.1531 33.2283 32.3118C33.2283 31.8115 33.1033 31.3909 32.8531 31.0498C32.6257 30.7087 32.296 30.4586 31.864 30.2994C31.4547 30.1175 30.9545 30.0266 30.3633 30.0266C29.4537 30.0266 28.6124 30.2426 27.8393 30.6746C27.0662 31.1066 26.4182 31.7433 25.8952 32.5846L22.4503 28.6282C22.9506 27.9687 23.6327 27.4003 24.4968 26.9228C25.3836 26.4225 26.3841 26.036 27.4983 25.7631C28.6124 25.4903 29.7721 25.3538 30.9772 25.3538C32.5916 25.3538 34.0014 25.604 35.2065 26.1042C36.4344 26.6044 37.3781 27.3093 38.0375 28.2189C38.7196 29.1057 39.0607 30.163 39.0607 31.3909C39.0607 32.2777 38.8788 33.119 38.515 33.9148C38.1512 34.6879 37.6395 35.3473 36.9801 35.8931C36.3207 36.416 35.559 36.7571 34.6949 36.9163Z" fill="#75BF7A"/>
</svg>
